<svg width="11" height="11" viewBox="0 0 11 11" fill="none" xmlns="http://www.w3.org/2000/svg">
<path d="M7.66978 4.86538L5.05122 2.24681C4.80337 1.99898 4.80337 1.59717 5.05121 1.34934C5.05121 1.34934 5.05121 1.34934 5.05122 1.34934L5.126 1.42413L7.66978 4.86538ZM7.66978 4.86538L0.740332 4.86538C0.389894 4.86538 0.105716 5.14951 0.105716 5.5C0.105716 5.85049 0.389894 6.13462 0.740332 6.13462L7.66977 6.13462L5.05121 8.75313L5.05121 8.75314C4.80337 9.00101 4.80337 9.40284 5.05121 9.65071L5.05123 9.65073C5.29905 9.89848 5.70085 9.89848 5.94868 9.65073L5.94869 9.65071L9.62495 5.9744L9.62495 10.2596C9.62495 10.6101 9.90908 10.8942 10.2596 10.8942C10.6101 10.8942 10.8942 10.6101 10.8942 10.2596L10.8942 0.740382C10.8942 0.389896 10.6101 0.105766 10.2596 0.105766C9.90908 0.105766 9.62495 0.389896 9.62495 0.740382L9.62495 5.0256L7.66978 4.86538Z" fill="white" stroke="white" stroke-width="0.2"/>
</svg>
