<svg width="11" height="11" viewBox="0 0 11 11" fill="none" xmlns="http://www.w3.org/2000/svg">
<path d="M3.33026 6.13438L5.94872 8.75285C6.19655 9.00067 6.19655 9.40247 5.94872 9.65029C5.94872 9.65029 5.94872 9.65029 5.94872 9.6503L5.87393 9.57551L3.33026 6.13438ZM3.33026 6.13438L10.2594 6.13438C10.6099 6.13438 10.894 5.85027 10.894 5.49979C10.894 5.14931 10.6099 4.8652 10.2594 4.8652L3.33026 4.8652L5.94872 2.24678L5.94873 2.24677C6.19655 1.99891 6.19655 1.5971 5.94873 1.34924L5.94871 1.34922C5.70089 1.10148 5.29911 1.10148 5.05129 1.34922L5.05128 1.34923L1.37515 5.02541L1.37515 0.740354C1.37515 0.389929 1.09104 0.105763 0.740562 0.105763C0.390084 0.105763 0.105971 0.389929 0.105971 0.740355L0.105972 10.2592C0.105972 10.6097 0.390091 10.8938 0.740563 10.8938C1.09104 10.8938 1.37516 10.6097 1.37516 10.2592L1.37515 5.97417L3.33026 6.13438Z" fill="white" stroke="white" stroke-width="0.2"/>
</svg>
